#!OML:ASF H:\LiuWeirdWalks\Patient Classification 1\Patient 1\Session 1\male.ASF
:FULLY-SPECIFIED
:DEGREES
338
root 1.68204 17.6944 -28.7891 1.68189 7.79434 -2.31343
lowerback 3.28815 -0.596538 -0.2469
upperback 1.44705 -0.775381 3.74697
thorax -0.302145 -0.398412 4.02275
lowerneck -25.1344 -1.09182 8.51914
upperneck 36.925 -1.15954 -10.8944
head 17.7811 -0.860628 -6.88766
rclavicle 1.59028e-015 -2.38542e-014
rhumerus -22.137 -24.8881 -7.50258
rradius 31.5393
rwrist -2.31527
rhand -19.0201 -4.58641
rfingers 7.12502
rthumb 7.28572 -34.441
lclavicle 1.59028e-015 -2.38542e-014
lhumerus -15.0234 21.2106 17.1155
lradius 31.1574
lwrist -3.72948
lhand -12.0948 3.5434
lfingers 7.12502
lthumb 13.9656 33.0543
rfemur -7.7185 -5.46329 16.1301
rtibia 32.6559
rfoot -15.0794 -27.5975
rtoes -3.41006
lfemur -7.10107 -0.138659 -20.415
ltibia 31.2579
lfoot -16.8282 19.3909
ltoes -6.26957
339
root 1.68029 17.6936 -28.7805 1.71991 7.76624 -2.31665
lowerback 3.32023 -0.644538 -0.368619
upperback 1.42168 -0.841919 3.75001
thorax -0.33947 -0.431672 4.09786
lowerneck -25.044 -0.984098 8.60545
upperneck 36.8466 -0.996557 -10.9727
head 17.7407 -0.796194 -6.89678
rclavicle 1.90833e-014 2.14687e-014
rhumerus -21.9765 -24.7805 -7.56043
rradius 31.5433
rwrist -2.28354
rhand -18.9674 -4.54747
rfingers 7.12502
rthumb 7.33663 -34.4003
lclavicle 1.90833e-014 2.14687e-014
lhumerus -15.2447 21.2287 17.0927
lradius 31.1507
lwrist -3.74883
lhand -12.118 3.50116
lfingers 7.12502
lthumb 13.9433 33.0136
rfemur -7.73388 -5.46189 16.1391
rtibia 32.6538
rfoot -15.1013 -27.5808
rtoes -3.42821
lfemur -7.11151 -0.170037 -20.4141
ltibia 31.2697
lfoot -16.8774 19.4657
ltoes -6.20482
340
root 1.67896 17.6927 -28.7712 1.75759 7.7353 -2.30727
lowerback 3.34484 -0.627605 -0.481813
upperback 1.43456 -0.823225 3.69879
thorax -0.340518 -0.422758 4.10836
lowerneck -25.0332 -1.01041 8.56812
upperneck 36.7809 -1.06174 -10.8732
head 17.6919 -0.816733 -6.84624
rclavicle 1.47101e-014 1.74931e-014
rhumerus -22.0574 -24.7972 -7.51297
rradius 31.563
rwrist -2.27196
rhand -18.8813 -4.48814
rfingers 7.12502
rthumb 7.41972 -34.338
lclavicle 1.47101e-014 1.74931e-014
lhumerus -15.1822 21.2815 17.1763
lradius 31.1095
lwrist -3.793
lhand -12.1254 3.46146
lfingers 7.12502
lthumb 13.9361 32.9744
rfemur -7.74622 -5.46938 16.1303
rtibia 32.6545
rfoot -15.1209 -27.5514
rtoes -3.45355
lfemur -7.11421 -0.185187 -20.4274
ltibia 31.2757
lfoot -16.9249 19.532
ltoes -6.15115
341
root 1.67782 17.6918 -28.7616 1.79074 7.69655 -2.30381
lowerback 3.36865 -0.616401 -0.588966
upperback 1.45287 -0.812199 3.64809
thorax -0.335079 -0.417806 4.11619
lowerneck -25.0225 -1.01987 8.5484
upperneck 36.6955 -1.10716 -10.7805
head 17.6358 -0.828457 -6.79644
rclavicle 1.07344e-014 2.3059e-014
rhumerus -22.1096 -24.8244 -7.48256
rradius 31.5762
rwrist -2.27946
rhand -18.7772 -4.42566
rfingers 7.12502
rthumb 7.52019 -34.272
lclavicle 1.07344e-014 2.3059e-014
lhumerus -15.1377 21.3526 17.2473
lradius 31.0673
lwrist -3.86366
lhand -12.1325 3.43661
lfingers 7.12502
lthumb 13.9293 32.95
rfemur -7.75531 -5.4733 16.1274
rtibia 32.6567
rfoot -15.1309 -27.5181
rtoes -3.48967
lfemur -7.11106 -0.181343 -20.4329
ltibia 31.2815
lfoot -16.9693 19.5913
ltoes -6.10336
342
root 1.67649 17.691 -28.7518 1.82152 7.65796 -2.32233
lowerback 3.38181 -0.606447 -0.676291
upperback 1.48035 -0.802609 3.59948
thorax -0.314407 -0.413793 4.11478
lowerneck -25.0365 -1.02223 8.54629
upperneck 36.5973 -1.14405 -10.7082
head 17.5802 -0.837821 -6.75803
rclavicle -2.54444e-014 3.4191e-014
rhumerus -22.1574 -24.875 -7.45878
rradius 31.5801
rwrist -2.2494
rhand -18.6696 -4.3584
rfingers 7.12502
rthumb 7.62403 -34.201
lclavicle -2.54444e-014 3.4191e-014
lhumerus -15.0947 21.4149 17.313
lradius 31.0372
lwrist -3.91859
lhand -12.1438 3.44042
lfingers 7.12502
lthumb 13.9185 32.9546
rfemur -7.76502 -5.46616 16.1536
rtibia 32.6579
rfoot -15.1239 -27.4933
rtoes -3.54441
lfemur -7.11187 -0.164381 -20.4095
ltibia 31.2926
lfoot -17.0145 19.635
ltoes -6.08039
343
root 1.67502 17.6902 -28.742 1.85216 7.61873 -2.35936
lowerback 3.39733 -0.607341 -0.747988
upperback 1.49871 -0.80668 3.55838
thorax -0.303503 -0.416384 4.1129
lowerneck -25.037 -1.00627 8.55623
upperneck 36.5074 -1.15229 -10.6472
head 17.5306 -0.83491 -6.72226
rclavicle 1.2921e-015 -1.03368e-014
rhumerus -22.1717 -24.9204 -7.44725
rradius 31.5713
rwrist -2.18453
rhand -18.5483 -4.28166
rfingers 7.12502
rthumb 7.74111 -34.12
lclavicle 1.2921e-015 -1.03368e-014
lhumerus -15.1083 21.4368 17.3516
lradius 31.0305
lwrist -3.94798
lhand -12.1568 3.4639
lfingers 7.12502
lthumb 13.9059 32.9789
rfemur -7.77724 -5.44838 16.2048
rtibia 32.6569
rfoot -15.0956 -27.485
rtoes -3.62067
lfemur -7.12098 -0.134368 -20.3614
ltibia 31.313
lfoot -17.0572 19.6642
ltoes -6.09
344
root 1.67341 17.6895 -28.7319 1.88107 7.57909 -2.40987
lowerback 3.41846 -0.625282 -0.815239
upperback 1.50679 -0.832961 3.53079
thorax -0.304413 -0.429882 4.12349
lowerneck -25.0147 -0.957913 8.59945
upperneck 36.4108 -1.10659 -10.6303
head 17.4798 -0.811763 -6.7017
rclavicle 1.04362e-014 1.59028e-014
rhumerus -22.1275 -24.9053 -7.46886
rradius 31.5627
rwrist -2.11238
rhand -18.4881 -4.25144
rfingers 7.12502
rthumb 7.79927 -34.0876
lclavicle 1.04362e-014 1.59028e-014
lhumerus -15.1964 21.4511 17.3576
lradius 31.0383
lwrist -3.95197
lhand -12.1726 3.49188
lfingers 7.12502
lthumb 13.8907 33.008
rfemur -7.78835 -5.42146 16.274
rtibia 32.654
rfoot -15.055 -27.4877
rtoes -3.71094
lfemur -7.13419 -0.0971812 -20.2946
ltibia 31.3429
lfoot -17.1031 19.6802
ltoes -6.11929
345
root 1.67166 17.6887 -28.7215 1.90979 7.53951 -2.4677
lowerback 3.45385 -0.615232 -0.871374
upperback 1.52219 -0.821729 3.48042
thorax -0.309221 -0.424478 4.10294
lowerneck -25.0385 -0.978256 8.5691
upperneck 36.3662 -1.17466 -10.5144
head 17.4522 -0.82923 -6.65017
rclavicle 6.65929e-015 7.15625e-015
rhumerus -22.1924 -24.9507 -7.44449
rradius 31.5527
rwrist -2.00425
rhand -18.4349 -4.20998
rfingers 7.12502
rthumb 7.85061 -34.0442
lclavicle 6.65929e-015 7.15625e-015
lhumerus -15.1636 21.4686 17.4008
lradius 31.0342
lwrist -3.94094
lhand -12.1831 3.50075
lfingers 7.12502
lthumb 13.8805 33.0175
rfemur -7.79973 -5.38989 16.353
rtibia 32.6515
rfoot -15.0266 -27.4911
rtoes -3.78771
lfemur -7.15092 -0.0526822 -20.2166
ltibia 31.3795
lfoot -17.1447 19.6841
ltoes -6.1687
346
root 1.66995 17.6879 -28.7108 1.94087 7.49897 -2.52238
lowerback 3.50407 -0.615828 -0.9448
upperback 1.51801 -0.824637 3.44134
thorax -0.3409 -0.425704 4.10484
lowerneck -25.0356 -0.96507 8.56603
upperneck 36.3212 -1.19113 -10.4243
head 17.4257 -0.825188 -6.60484
rclavicle -5.96354e-015 2.3059e-014
rhumerus -22.2162 -24.9415 -7.43132
rradius 31.5451
rwrist -1.92851
rhand -18.4248 -4.19796
rfingers 7.12502
rthumb 7.86033 -34.0318
lclavicle -5.96354e-015 2.3059e-014
lhumerus -15.1902 21.4651 17.4247
lradius 31.0397
lwrist -3.90131
lhand -12.1974 3.50695
lfingers 7.12502
lthumb 13.8668 33.0247
rfemur -7.81216 -5.35996 16.4273
rtibia 32.6522
rfoot -15.0167 -27.4882
rtoes -3.84726
lfemur -7.1695 -0.00374831 -20.141
ltibia 31.419
lfoot -17.1806 19.6825
ltoes -6.23341
347
root 1.66855 17.687 -28.6994 1.97446 7.45306 -2.56722
lowerback 3.55444 -0.622275 -1.03681
upperback 1.50575 -0.83588 3.40608
thorax -0.379937 -0.430988 4.12163
lowerneck -25.0268 -0.934274 8.58008
upperneck 36.2869 -1.17753 -10.3591
head 17.4079 -0.809551 -6.56973
rclavicle -5.36719e-015 3.97569e-015
rhumerus -22.2069 -24.9243 -7.42797
rradius 31.5333
rwrist -1.85461
rhand -18.4197 -4.18755
rfingers 7.12502
rthumb 7.86526 -34.0212
lclavicle -5.36719e-015 3.97569e-015
lhumerus -15.2456 21.4826 17.4375
lradius 31.0433
lwrist -3.86551
lhand -12.2022 3.49668
lfingers 7.12502
lthumb 13.8622 33.0147
rfemur -7.82564 -5.33754 16.4863
rtibia 32.6582
rfoot -15.0355 -27.464
rtoes -3.87986
lfemur -7.18607 0.0490865 -20.0773
ltibia 31.4586
lfoot -17.211 19.6808
ltoes -6.30501
348
root 1.66727 17.686 -28.6877 2.0129 7.40874 -2.60164
lowerback 3.59302 -0.61823 -1.13974
upperback 1.49694 -0.833878 3.359
thorax -0.409913 -0.429768 4.13165
lowerneck -25.0163 -0.918522 8.58105
upperneck 36.2484 -1.19333 -10.263
head 17.3833 -0.803394 -6.52273
rclavicle 1.87355e-014 1.19271e-014
rhumerus -22.2443 -24.8857 -7.40625
rradius 31.539
rwrist -1.84766
rhand -18.4191 -4.1937
rfingers 7.12502
rthumb 7.86588 -34.0274
lclavicle 1.87355e-014 1.19271e-014
lhumerus -15.2426 21.5291 17.4724
lradius 31.0314
lwrist -3.86618
lhand -12.2388 3.51039
lfingers 7.12502
lthumb 13.8269 33.0308
rfemur -7.84241 -5.32332 16.5318
rtibia 32.6686
rfoot -15.078 -27.429
rtoes -3.887
lfemur -7.20594 0.103112 -20.0255
ltibia 31.4987
lfoot -17.2291 19.6809
ltoes -6.3958
349
root 1.66605 17.6847 -28.6756 2.05069 7.36194 -2.62756
lowerback 3.62781 -0.636582 -1.26618
upperback 1.47976 -0.862441 3.32657
thorax -0.443263 -0.443822 4.17141
lowerneck -25.0111 -0.851619 8.6183
upperneck 36.233 -1.12193 -10.2294
head 17.3854 -0.764537 -6.49807
rclavicle 3.17559e-014 2.10712e-014
rhumerus -22.1924 -24.7967 -7.42181
rradius 31.5436
rwrist -1.89234
rhand -18.4187 -4.22371
rfingers 7.12502
rthumb 7.86623 -34.0574
lclavicle 3.17559e-014 2.10712e-014
lhumerus -15.3369 21.5899 17.466
lradius 31.032
lwrist -3.85798
lhand -12.2749 3.50769
lfingers 7.12502
lthumb 13.7921 33.0305
rfemur -7.85676 -5.31497 16.5656
rtibia 32.6811
rfoot -15.128 -27.387
rtoes -3.88884
lfemur -7.22362 0.156937 -19.984
ltibia 31.5408
lfoot -17.2406 19.688
ltoes -6.50505
350
root 1.66469 17.6835 -28.6637 2.08688 7.32144 -2.66994
lowerback 3.65958 -0.673348 -1.38646
upperback 1.45596 -0.915275 3.30886
thorax -0.479448 -0.469885 4.22399
lowerneck -24.9719 -0.747499 8.70218
upperneck 36.1829 -0.990175 -10.2525
head 17.3689 -0.703968 -6.49212
rclavicle -1.28216e-014 6.75868e-015
rhumerus -22.0813 -24.6577 -7.46658
rradius 31.5508
rwrist -1.97913
rhand -18.4287 -4.28502
rfingers 7.12502
rthumb 7.85659 -34.119
lclavicle -1.28216e-014 6.75868e-015
lhumerus -15.4938 21.6497 17.4324
lradius 31.0435
lwrist -3.81642
lhand -12.3489 3.53043
lfingers 7.12502
lthumb 13.7208 33.0581
rfemur -7.8706 -5.30794 16.6196
rtibia 32.6911
rfoot -15.1706 -27.3502
rtoes -3.90292
lfemur -7.24588 0.200634 -19.9246
ltibia 31.587
lfoot -17.2477 19.7019
ltoes -6.62168
351
root 1.66323 17.6823 -28.6518 2.11998 7.2855 -2.72986
lowerback 3.6983 -0.712689 -1.49194
upperback 1.42549 -0.970999 3.29309
thorax -0.526169 -0.497042 4.27055
lowerneck -24.9297 -0.640914 8.79408
upperneck 36.146 -0.854221 -10.2841
head 17.3595 -0.641176 -6.49212
rclavicle 1.39149e-014 3.29983e-014
rhumerus -21.9733 -24.5194 -7.50204
rradius 31.5504
rwrist -2.06723
rhand -18.3861 -4.3092
rfingers 7.12502
rthumb 7.89767 -34.1417
lclavicle 1.39149e-014 3.29983e-014
lhumerus -15.6572 21.6891 17.3906
lradius 31.0647
lwrist -3.72551
lhand -12.4392 3.56977
lfingers 7.12502
lthumb 13.6338 33.1033
rfemur -7.88112 -5.30134 16.6947
rtibia 32.6954
rfoot -15.2049 -27.3197
rtoes -3.92864
lfemur -7.27156 0.235142 -19.8466
ltibia 31.6395
lfoot -17.2548 19.7248
ltoes -6.74474
